# Blender 4.2.3 LTS
# www.blender.org
mtllib box.mtl
o 立方体
v -1.000000 -1.000000 1.000000
v -1.000000 1.000000 1.000000
v -1.000000 -1.000000 -1.000000
v -1.000000 1.000000 -1.000000
v 1.000000 -1.000000 1.000000
v 1.000000 1.000000 1.000000
v 1.000000 -1.000000 -1.000000
v 1.000000 1.000000 -1.000000
vn -1.0000 -0.0000 -0.0000
vn -0.0000 -0.0000 -1.0000
vn 1.0000 -0.0000 -0.0000
vn -0.0000 -0.0000 1.0000
vn -0.0000 -1.0000 -0.0000
vn -0.0000 1.0000 -0.0000
vt 0.500000 0.750000
vt 0.250043 0.500043
vt 0.500000 0.500043
vt 0.250043 0.750000
vt 0.000087 0.500043
vt 0.999913 0.750000
vt 0.749957 0.500043
vt 0.999913 0.500043
vt 0.749957 0.750000
vt 0.250043 0.250087
vt 0.000087 0.999957
vt 0.000087 0.750000
vt 0.000087 0.250087
vt 0.250043 0.999957
s 0
usemtl マテリアル.001
f 2/1/1 3/2/1 1/3/1
f 4/4/2 7/5/2 3/2/2
f 8/6/3 5/7/3 7/8/3
f 6/9/4 1/3/4 5/7/4
f 7/5/5 1/10/5 3/2/5
f 4/4/6 6/11/6 8/12/6
f 2/1/1 4/4/1 3/2/1
f 4/4/2 8/12/2 7/5/2
f 8/6/3 6/9/3 5/7/3
f 6/9/4 2/1/4 1/3/4
f 7/5/5 5/13/5 1/10/5
f 4/4/6 2/14/6 6/11/6
